<?xml version="1.0" encoding="UTF-8"?>
<svg version="1.1" viewBox="0 0 2048 1022" width="1280" height="1280" xmlns="http://www.w3.org/2000/svg">
<path transform="translate(1142,254)" d="m0 0h17l16 3 13 5 10 6-1 5-13 25-5 11-5-1-9-2h-8l-6 2-4 4-3 12-1 48h59v-45l2-16 5-16 9-17 9-10 9-7 12-5 11-2h17l17 3 12 5 9 5 1 5-6 10-11 24-1 3-6-1-8-2h-9l-7 3-3 4-3 10-1 29v20h39v43l-1 1h-38v122l-1 1h-56l-1-12v-111h-59v122l-1 1h-57l-1-122-23-1-1-43 1-1h23v-24l1-26 3-17 6-15 6-11 9-10 8-7 11-5z" fill="#FEE796"/>
<path transform="translate(648,367)" d="m0 0h16l12 2 18 8 12 9 7 10 4-2 13-13 14-8 8-4 11-2h15l16 3 19 10 10 9 6 9 4 12 1 6v123h-57l-1-101-3-10-6-8-7-4-9-2-12 1-10 5-4 6-3 9-1 103-1 1h-57l-1-94-2-13-5-10-5-4-13-4-13 1-8 4-6 8-2 6-1 7-1 99h-58v-167h58v17l13-10 16-9z" fill="#FEE796"/>
<path transform="translate(146,259)" d="m0 0h57l1 129 17-12 14-7 10-2h15l13 2 10 3 19 9 10 9 8 11 4 12 1 6v120h-56l-1-1-1-100-3-9-7-9-7-5-8-2h-8l-9 2-9 6-3 1-2 4-5 7-2 7-1 99h-57l-1-45v-234z" fill="#FEE796"/>
<path transform="translate(1793,367)" d="m0 0h16l17 3 21 9 10 7 7 9 8 16 2 10v118h-58l-1-100-4-12-6-8-10-5-5-1h-8l-10 3-8 5-6 7-4 7-1 4-1 99-1 1h-57l-1-166 1-1h58l1 16 10-8 17-10z" fill="#FEE796"/>
<path transform="translate(863,372)" d="m0 0h56l1 1 1 94 2 9 6 12 6 5 7 3 5 1h13l10-3 8-6 4-8 2-7 1-8 1-93h58l1 1v89l-1 19-3 14-6 16-6 9-7 7-9 6-12 5-17 4-16 2h-30l-17-2-16-4-12-5-8-6-5-4-7-10-6-12-3-11-2-21v-96z" fill="#FEE796"/>
<path transform="translate(1573,367)" d="m0 0h20l17 3 16 6 13 7 13 12 7 9 8 17 4 16 1 10v16l-1 1h-121l3 14 3 6 4 5 12 7 8 2h15l12-3 11-7 8-7 6 1 19 9 14 8 3 2-2 4-8 11-9 8-11 8-14 6-16 4-16 2h-20l-17-3-14-5-12-7-11-9-9-9-7-10-6-10-4-11-2-10-1-15 2-18 5-16 11-18 18-18 16-9 14-6 8-2zm4 37-11 4-9 7-4 8-1 9h62l1-3-4-11-5-6-10-6-7-2z" fill="#FEE796"/>
<path transform="translate(427,367)" d="m0 0h21l17 3 16 6 12 7 10 8 9 11 8 14 4 13 2 12 1 21-1 2h-122l4 16 6 8 12 8 9 2h16l13-4 11-8 5-5 7 1 16 8 10 6 10 5-2 4-7 9-5 6-13 10-12 6-16 5-21 3h-20l-17-3-14-5-11-6-11-9-12-12-7-11-7-16-4-17v-18l4-17 6-15 7-11 19-19 15-9 18-7zm5 37-9 3-9 6-5 6-3 8v4l2 1h62l-2-10-4-6-9-8-10-4z" fill="#FEE796"/>
<path transform="translate(1381,367)" d="m0 0h19l19 3 19 8 13 8 9 9 8 10 6 14 4 16 1 7 1 20-2 2-120 1 2 12 3 6 8 8 12 6 5 1h16l11-3 7-4 11-9 5-1 19 9 14 8 5 3-2 4-6 9-7 7-13 10-16 7-16 4-16 2h-19l-13-2-12-3-16-8-14-11-8-8-11-15-6-15-3-15v-22l3-15 6-15 10-14 14-14 10-7 19-9 12-3zm4 37-9 3-6 4-7 7-4 9 1 5h63l-2-10-5-8-8-6-6-3-5-1z" fill="#FEE796"/>
<path transform="translate(32,310)" d="m0 0h56l1 6v56h35v43l-1 1h-34l1 65 4 8 7 3 10-2 6-2 2 7 11 33 1 6-8 4-14 4-13 2h-18l-10-2-12-5-10-9-7-10-4-9-3-15-1-72v-5l-1-1h-22l-1-1v-42l1-1h23z" fill="#FEE796"/>
<path transform="translate(1966,367)" d="m0 0h20l17 2 16 5 13 5 1 3-9 19-8 16-5-1-15-5-11-2h-17l-6 3-1 1v8l4 5 16 6 16 5 12 6 13 9 5 5 6 10 3 10v23l-4 13-6 9-9 9-12 6-13 4-22 3h-22l-19-3-18-6-11-6-6-5 1-6 7-13 7-10 6-11 4 1 18 11 15 5h13l8-4 2-3v-8l-5-5-15-7-17-7-10-6-10-8-8-9-5-13-1-6v-9l4-15 6-11 8-8 10-6 15-6z" fill="#FEE796"/>
</svg>
