<?xml version="1.0" encoding="UTF-8"?>
<svg version="1.1" viewBox="0 0 2048 1022" width="1280" height="1280" xmlns="http://www.w3.org/2000/svg">
<path transform="translate(337,188)" d="m0 0 10 2 8 7 6 12-1 7-12 20-7 10-10 17-8 13-2 5 27 4 36 8 18 6 16 8 9 6 6 8 1 2v7l-4 4-6 1-25-10-24-7-22-3-51-4-2 6-12 23-14 28-11 25-6 12-22 55-8 21v2l16-14 9-7 11-9 17-12 10-7 17-11 13-8 13-6 8-2h7l9 3 9 7 4 5 4 9 1 4v17l-5 21-6 16-3 6 48-17 17-8 18-8 11-6 11-10 8-7 11-7 11-4 13-1 10 3 6 4 7 8 4 8v8l-5 9-9 10-9 7-21 12-17 8-9 4h-2l-2 8-2 5 17-4 15-5 31-13 16-8 19-9 24-14 8-5 5-12 5-8 4-2 7 1 10 6 7 8 2 8-6 11-1 4 5-3 11-8 15-10 11-7 18-10 15-8 12-4h13l8 3 9 8 4 8 1 4v16l-3 14 14-9 9-4 5-1h10l11 4 8 7 8 10 3 10v9l17-6 21-10 19-10 11-6 11-7 10-17 8-9 3-2 7 1 10 6 7 9 1 2v6l-14 22-6 12-6 16 11-7 14-10 13-11 11-9 10-9 24-22 7-6 5-5 8-7 4-2 10 2 8 7 4 8 1 9-10 36-3 13v4l15-6 10-6 22-16 10-9 5-5 6-10 12-23 8-13 10-17 5-4h6l10 6 7 10 1 3v7l-6 11-9 14-11 20-9 17-1 3 3-1h14l14 2 9 4 13 7 6 6v2h2l3-10 10-24 8-16 10-19 9-15 7-12 8-12 3-3 9 1 8 6 6 9 1 3v7l-6 11-8 14-6 9-11 22-5 9 3-1h15l13 2 12 5 12 7 6-15 7-13 10-13 7-9 16-14 16-8 10-2 12 1 10 5 9 10 2 5v12l-4 7-12 13-20 12-17 9-17 7-5 13 20-5 16-6 29-12 40-20 13-8 10-6 9-11 12-11 9-7 13-6 10-2 12 1 8 4 9 8 4 9v10l-4 8-5 6-8 7-9 6-19 11-25 11-5 13 20-5 16-6 29-12 40-20 11-7 9-5 5-8 5-9 7-8 7 1 8 4 10 10 2 4v5l9-5 11-7 32-16 24-8 7-1 9 3 7 7 4 7v8l-15 29-7 12-4 9 21-10 15-7 23-10 12-6 26-11 9-5-3-10-1-7v-8l2-9 4-6 7-6 7-3h8l9 4 6 4 5 7 1 3v9l-4 3-9 1-4 3-1 9 3 10 4 6 6 6 5-1 39-15 23-7h8l6 5 3 6v6l-5 5-27 13-16 9-14 10h-2l2 9v17l-3 12-7 14-11 13-6 4-10 3h-8l-11-4-10-9-6-9-2-7v-12l4-12 9-14 12-12 4-5 7-5-6-7-3-3-11 6-17 9-9 5-10 6-21 13-14 9-9 6-13 8-19 9-10 3h-7l-10-4-8-6-5-9-2-6v-10l4-15 6-15-17 9-12 9-14 10-14 13-6 5-7 8-8 8-7 8-9-1-6-4-6-8-4-9 2-10 3-12-11 6-14 8-18 10-29 13-13 5-11 2h-15l-9-3-8-6-8-11-2-6-1-18-9 5-14 8-22 12-29 13-15 5-6 1h-16l-11-4-5-4-8-11-5-10-12-6-4-1h-16l-8 2h-4l4 10 4 11 3 19v27l-3 29-5 31-5 19-8 20-8 16-9 12-8 10h-6l-10-6-10-8-9-12-6-10-5-16-2-11-1-23 2-25 5-28 5-21 10-36 1-3-6-2-9-4-4-1h-16l-11 3 2 5 6 16 2 10 1 12v19l-3 32-4 26-5 19-7 21-8 16-10 16-10 11-8-1-10-7-10-9-8-11-5-10-4-13-3-16-1-10v-10l3-25 5-29 7-30 5-16 3-12-17 12-11 5-7 2h-11l-12-6-7-8-4-10-1-4v-17l-8 6-8 7-11 9-22 16-19 11-6 2-7 1h-9l-8-3-9-7-6-7-3-8-1-4v-8l-12 6-19 12-16 8-12 4-10 1-11-2-11-7-6-8-2-6v-17l-10 5-10 8-11 7-10 8-9 6-3 1h-7l-7-4-7-8-3-5-1-6 6-26 5-20 1-3-15 8-13 8-17 11-14 10-11 8-14 12-3 3h-2v2l-11 9-10 11-2 1h-7l-8-4-8-9-3-6 1-13 3-15-11 6-14 9-28 15-15 7-21 9-16 4h-16l-11-4-8-8-6-10-3-10v-9l2-9 1-2-23 12-10 5-25 9-10 2-8-1-11-4-7-5-6-10-3-9v-9l6-21 7-21v-3l-20 11-10 7-19 13-11 9-8 6-10 9-8 7-8 8-8 7-11 12-8 6-9-1-9-6-9-11-4-9-1-5v-17l4-17 11-30 7-20 7-16 9-22 8-17 10-23 8-16 9-19 1-1h-35l-12 29-7 15-11 27-10 26-9 25-8 25-8 28-5 17-8 40-7 44-2 25-2 44-3 2-9-2-6-4-8-9-2-5v-38l3-37 5-35 5-27 14-53 16-49 7-18 16-41 11-25 1-4-2 1-54 4-33 4-57 9-12 2-9-1-6-4-9-10-3-6v-5l5-3 25-5 49-7 63-7 31-2 27-1 2-6 6-14 8-16 14-29 6-12 3-3h7l8 4 8 7 4 9-1 6-10 19-9 20-7 15 37-1 5-8 10-18 11-18 10-16 13-20 7-9zm871 337-3 5-15 47-6 27-4 26-3 24v23l3 8 4-4 10-18 6-15 5-18 6-28 3-26 1-13v-26l-4-10zm-108 1-4 10-9 25-8 32-5 22-4 31-1 10v19l2 8h4l8-13 10-23 6-22 5-30 4-42v-11l-4-13-2-3z" fill="#FEE995"/>
<path transform="translate(1934,478)" d="m0 0 8 1 9 6 6 7 2 9-3 5-12 11h-7l-6-3-5-4-7-10-1-8 5-7 9-6z" fill="#FEE995"/>
</svg>
